<svg height="512" viewBox="0 0 64 64" width="512" xmlns="http://www.w3.org/2000/svg"><g id="flat"><path d="m10.672 4.379h5.657v4.243h-5.657z" fill="#e97424" transform="matrix(.707 -.707 .707 .707 -.642 11.45)"/><path d="m18.439 27.373-6.376-17.021a1 1 0 0 1 .23-1.059l4-4a1 1 0 0 1 1.059-.23l16.98 6.38-1.684 1.494-15.4-5.775-3.09 3.09 5.775 15.4z" fill="#91cdf2"/><g fill="#f9bb4b"><path d="m29 43h18v2h-18z"/><path d="m28 38a1 1 0 0 1 -.6-.2l-4.524-3.392 1.724-1.208 3.55 2.663 4.479-1.792.742 1.858-5 2a1 1 0 0 1 -.371.071z"/><path d="m41.98 28.2-1.96-.4.941-4.708-1.89-4.725 1.519-1.543 2.339 5.8a.99.99 0 0 1 .051.567z"/></g><path d="m38.5 29.964h2v7.071h-2z" fill="#91cdf2" transform="matrix(.707 -.707 .707 .707 -12.119 37.743)"/><path d="m36 33a1.014 1.014 0 0 1 -.11-.006l-9-1 .22-1.988 8.523.947 1.244-1.244-1.839-6.435 1.924-.548 2 7a1 1 0 0 1 -.255.981l-2 2a1 1 0 0 1 -.707.293z" fill="#f9bb4b"/><path d="m22 53h32v8h-32z" fill="#4f83d1"/><path d="m54 53h-32l4-4h24z" fill="#195c85"/><path d="m46 49h-4l-4-13h4z" fill="#91cdf2"/><path d="m30 49h4l4-13h-4z" fill="#91cdf2"/><path d="m42 37h-8a.994.994 0 0 1 -.581-.187l-7.458-5.33 1.62-1.3 6.739 4.817h6.68v-5.586l-6.707-6.707 1.414-1.414 7 7a1 1 0 0 1 .293.707v7a1 1 0 0 1 -1 1z" fill="#e97424"/><path d="m30 39h16v2h-16z" fill="#4f83d1"/><path d="m21.672 15.379h5.657v4.243h-5.657z" fill="#91cdf2" transform="matrix(.707 -.707 .707 .707 -5.198 22.45)"/><path d="m21 12-2 2 2 4 4-4z" fill="#f9bb4b"/><path d="m25 56h2v2h-2z" fill="#f4f4e6"/><path d="m44 56h10v2h-10z" fill="#f4f4e6"/><path d="m41 17-7.79 7.79-1.42 1.42-7.79 7.79a4.191 4.191 0 0 1 -4 1l-8-2 2.1-2.1 1.77-1.77 9.42-9.42 1.42-1.42 13.29-13.29 2 8a4.191 4.191 0 0 1 -1 4z" fill="#4f83d1"/><path d="m38.99 13.84a1.011 1.011 0 0 1 -.28.87l-17 17a1.007 1.007 0 0 1 -.71.29.86.86 0 0 1 -.16-.01l-6.74-1.09 1.77-1.77 4.79.8 16.27-16.27-.8-4.79 1.74-1.74z" fill="#91cdf2"/></g></svg>