<?xml version="1.0" encoding="UTF-8" standalone="no"?>
<svg
   xmlns:dc="http://purl.org/dc/elements/1.1/"
   xmlns:cc="http://creativecommons.org/ns#"
   xmlns:rdf="http://www.w3.org/1999/02/22-rdf-syntax-ns#"
   xmlns:svg="http://www.w3.org/2000/svg"
   xmlns="http://www.w3.org/2000/svg"
   xmlns:sodipodi="http://sodipodi.sourceforge.net/DTD/sodipodi-0.dtd"
   xmlns:inkscape="http://www.inkscape.org/namespaces/inkscape"
   height="512"
   viewBox="0 0 36 57"
   width="512"
   version="1.1"
   id="svg4582"
   sodipodi:docname="bulb.svg"
   inkscape:version="0.92.4 (5da689c313, 2019-01-14)">
  <metadata
     id="metadata4588">
    <rdf:RDF>
      <cc:Work
         rdf:about="">
        <dc:format>image/svg+xml</dc:format>
        <dc:type
           rdf:resource="http://purl.org/dc/dcmitype/StillImage" />
        <dc:title></dc:title>
      </cc:Work>
    </rdf:RDF>
  </metadata>
  <defs
     id="defs4586" />
  <sodipodi:namedview
     pagecolor="#ffffff"
     bordercolor="#666666"
     borderopacity="1"
     objecttolerance="10"
     gridtolerance="10"
     guidetolerance="10"
     inkscape:pageopacity="0"
     inkscape:pageshadow="2"
     inkscape:window-width="2560"
     inkscape:window-height="1017"
     id="namedview4584"
     showgrid="false"
     inkscape:pagecheckerboard="true"
     inkscape:zoom="1.3037281"
     inkscape:cx="295.11792"
     inkscape:cy="209.65267"
     inkscape:window-x="-8"
     inkscape:window-y="-8"
     inkscape:window-maximized="1"
     inkscape:current-layer="047---Broken-Light-Bulb" />
  <g
     id="Page-1"
     fill="none"
     fill-rule="evenodd">
    <g
       id="047---Broken-Light-Bulb"
       fill="rgb(0,0,0)"
       fill-rule="nonzero">
      <path
         id="Shape"
         d="m26 50c.5522847 0 1-.4477153 1-1s-.4477153-1-1-1h-1v-1.5c0-.2761424-.2238576-.5-.5-.5h-13c-.2761424 0-.5.2238576-.5.5v1.5h-1c-.55228475 0-1 .4477153-1 1s.44771525 1 1 1h1v2h-1c-.55228475 0-1 .4477153-1 1s.44771525 1 1 1h1v1c0 1.1045695.8954305 2 2 2h10c1.1045695 0 2-.8954305 2-2v-1h1c.5522847 0 1-.4477153 1-1s-.4477153-1-1-1h-1v-2z"
         style="fill:#ffffff;fill-opacity:1" />
      <rect
         id="Rectangle-path"
         height="10"
         rx=".5"
         width="4"
         x="16"
         y="34"
         style="fill:#ffffff;fill-opacity:1" />
      <path
         id="path4578"
         d="m18.463 0-.006.007-4.383 5.261.746 3.732h2.645l1.7-2.555c.1861134-.27895591.4996591-.44605511.835-.445h4c.5522847 0 1 .44771525 1 1s-.4477153 1-1 1h-3.465l-1.7 2.555c-.1861134.2789559-.4996591.4460551-.835.445h-10.153l-.667 4h2.82c.379026-.0001766.7255754.2139484.895.553l1.723 3.447h4.382c.5522847 0 1 .4477153 1 1s-.4477153 1-1 1h-5c-.379026.0001766-.7255754-.2139484-.895-.553l-1.723-3.447h-9.382v1c.00520429 5.1716555 2.23730561 10.090586 6.126 13.5 3.14119605 2.8155639 4.9172168 6.8478671 4.874 11.066v.934c0 .2761424.2238576.5.5.5h2c.2761424 0 .5-.2238576.5-.5v-9.5c.0017729-.6999425.3707764-1.3475968.972-1.706-.138-2.206-.928-3.654-2.419-4.4-.4942949-.2468713-.6948713-.8477051-.448-1.342s.8477051-.6948713 1.342-.448c2.117 1.059 3.288 3.044 3.507 5.9h2.092c.219-2.851 1.39-4.836 3.507-5.895.4942949-.2468713 1.0951287-.0462949 1.342.448s.0462949 1.0951287-.448 1.342c-1.491.745-2.281 2.193-2.419 4.4.5997001.357486.9684752 1.0028424.972 1.701v9.5c0 .2761424.2238576.5.5.5h2c.2761424 0 .5-.2238576.5-.5v-.933c-.0431139-4.2184001 1.732864-8.2509704 4.874-11.067 5.5659457-4.8850349 7.568966-12.6821619 5.0466474-19.6450081-2.5223187-6.96284612-9.0543784-11.66810645-16.4576474-11.8549919z"
         style="fill:#ffffff;fill-opacity:1" />
    </g>
  </g>
</svg>
