<?xml version="1.0" encoding="UTF-8" standalone="no"?>
<!-- Created with Inkscape (http://www.inkscape.org/) -->

<svg
   xmlns:dc="http://purl.org/dc/elements/1.1/"
   xmlns:cc="http://creativecommons.org/ns#"
   xmlns:rdf="http://www.w3.org/1999/02/22-rdf-syntax-ns#"
   xmlns:svg="http://www.w3.org/2000/svg"
   xmlns="http://www.w3.org/2000/svg"
   xmlns:sodipodi="http://sodipodi.sourceforge.net/DTD/sodipodi-0.dtd"
   xmlns:inkscape="http://www.inkscape.org/namespaces/inkscape"
   width="512"
   height="512"
   viewBox="0 0 135.46666 135.46667"
   version="1.1"
   id="svg875"
   inkscape:version="0.92.4 (5da689c313, 2019-01-14)"
   sodipodi:docname="512.svg"
   inkscape:export-filename="C:\wamp64\www\portifolio_wp\wp-content\themes\portifolio\img\icons-512.png"
   inkscape:export-xdpi="96"
   inkscape:export-ydpi="96">
  <defs
     id="defs869" />
  <sodipodi:namedview
     id="base"
     pagecolor="#ffffff"
     bordercolor="#666666"
     borderopacity="1.0"
     inkscape:pageopacity="0.0"
     inkscape:pageshadow="2"
     inkscape:zoom="1.4"
     inkscape:cx="107.43661"
     inkscape:cy="270.59895"
     inkscape:document-units="px"
     inkscape:current-layer="layer1"
     showgrid="false"
     units="px"
     inkscape:window-width="2560"
     inkscape:window-height="1017"
     inkscape:window-x="-8"
     inkscape:window-y="-8"
     inkscape:window-maximized="1"
     inkscape:pagecheckerboard="true" />
  <metadata
     id="metadata872">
    <rdf:RDF>
      <cc:Work
         rdf:about="">
        <dc:format>image/svg+xml</dc:format>
        <dc:type
           rdf:resource="http://purl.org/dc/dcmitype/StillImage" />
        <dc:title></dc:title>
      </cc:Work>
    </rdf:RDF>
  </metadata>
  <g
     inkscape:label="Camada 1"
     inkscape:groupmode="layer"
     id="layer1"
     transform="translate(0,-161.53329)">
    <g
       transform="matrix(0.6131057,0,0,0.6131057,53.703502,92.147877)"
       id="layer1-6"
       inkscape:label="Camada 1">
      <path
         inkscape:connector-curvature="0"
         id="path1080"
         d="m -14.820458,148.63887 a 75.145986,75.145986 0 0 0 -8.009213,1.01124 75.145986,75.145986 0 0 0 -61.602126,73.85735 75.145986,75.145986 0 0 0 75.145989,75.14598 l 1.210902,-0.13477 c 0.255559,-0.044 0.508814,-0.10084 0.75875,-0.17014 0.249564,-0.0692 0.495438,-0.15108 0.736807,-0.24509 0.242039,-0.0937 0.478979,-0.19968 0.710357,-0.31703 0.231387,-0.11797 0.456733,-0.24709 0.675185,-0.38747 0.218152,-0.14021 0.429385,-0.29095 0.632504,-0.45205 0.203186,-0.16147 0.398196,-0.33285 0.584185,-0.51372 0.185973,-0.18091 0.362802,-0.37088 0.529854,-0.56947 0.167283,-0.19795 0.324477,-0.40418 0.471091,-0.61786 0.14662,-0.21416 0.282168,-0.43564 0.406539,-0.66341 0.01989,-0.0423 0.0415,-0.0849 0.06169,-0.12785 l 0.739664,-2.94563 a 7.7802783,7.7802783 0 0 1 0,0.005 l 13.574744,-54.17116 15.534107,-58.98961 15.535515,58.98961 12.808575,51.1169 a 9.3554832,9.3554842 0 0 0 0,0.0115 l 1.347362,5.37326 a 9.3554832,9.3554842 0 0 0 0.109994,0.19228 9.3554832,9.3554842 0 0 0 0.544519,0.76173 9.3554832,9.3554842 0 0 0 0.616428,0.70158 9.3554832,9.3554842 0 0 0 0.685393,0.63842 9.3554832,9.3554842 0 0 0 0.744109,0.56506 9.3554832,9.3554842 0 0 0 0.796991,0.48874 9.3554832,9.3554842 0 0 0 0.842468,0.40656 9.3554832,9.3554842 0 0 0 0.877694,0.32142 9.3554832,9.3554842 0 0 0 0.907018,0.23206 9.3554832,9.3554842 0 0 0 0.924591,0.13939 9.3554832,9.3554842 0 0 0 0.933459,0.047 9.3554832,9.3554842 0 0 0 0.66197,-0.0226 9.3554832,9.3554842 0 0 0 0.9276,-0.11302 9.3554832,9.3554842 0 0 0 0.91287,-0.20562 9.3554832,9.3554842 0 0 0 0.888,-0.29501 9.3554832,9.3554842 0 0 0 0.85268,-0.3816 9.3554832,9.3554842 0 0 0 0.81165,-0.46523 9.3554832,9.3554842 0 0 0 0.76026,-0.54452 9.3554832,9.3554842 0 0 0 0.70307,-0.61643 9.3554832,9.3554842 0 0 0 0.63694,-0.68395 9.3554832,9.3554842 0 0 0 0.56652,-0.74412 9.3554832,9.3554842 0 0 0 0.31117,-0.50931 l 1.30627,-5.21326 12.83056,-51.19903 15.534123,-58.98961 15.53553,61.99543 1.75532,6.66479 1.48093,5.62272 a 5.6359485,5.6359478 0 0 0 0.29207,0.27298 5.6359485,5.6359478 0 0 0 0.44915,0.34049 5.6359485,5.6359478 0 0 0 0.47988,0.29499 5.6359485,5.6359478 0 0 0 0.50784,0.24514 5.6359485,5.6359478 0 0 0 0.52835,0.19226 5.6359485,5.6359478 0 0 0 0.546,0.13939 5.6359485,5.6359478 0 0 0 0.55777,0.0852 5.6359485,5.6359478 0 0 0 0.56207,0.0283 5.6359485,5.6359478 0 0 0 0.39923,-0.0132 5.6359485,5.6359478 0 0 0 0.55918,-0.0676 5.6359485,5.6359478 0 0 0 0.54897,-0.12308 5.6359485,5.6359478 0 0 0 0.53572,-0.17751 5.6359485,5.6359478 0 0 0 0.51369,-0.23034 5.6359485,5.6359478 0 0 0 0.48872,-0.2803 5.6359485,5.6359478 0 0 0 0.45787,-0.32731 5.6359485,5.6359478 0 0 0 0.42269,-0.37281 5.6359485,5.6359478 0 0 0 0.38459,-0.41094 5.6359485,5.6359478 0 0 0 0.34052,-0.44912 5.6359485,5.6359478 0 0 0 0.29501,-0.47993 5.6359485,5.6359478 0 0 0 0.24509,-0.50784 5.6359485,5.6359478 0 0 0 0.044,-0.12028 l -1.79351,-6.5283 -5.48336,-19.95183 -15.77178,-57.38248 -1.71282,-6.23184 -0.46085,-1.67462 a 5.6359487,5.6359487 0 0 0 -0.43885,-0.21274 5.6359487,5.6359487 0 0 0 -0.52836,-0.19229 5.6359487,5.6359487 0 0 0 -0.54601,-0.13939 5.6359487,5.6359487 0 0 0 -0.55773,-0.0852 5.6359487,5.6359487 0 0 0 -0.5621,-0.0285 5.6359487,5.6359487 0 0 0 -0.39924,0.0132 5.6359487,5.6359487 0 0 0 -0.55918,0.0674 5.6359487,5.6359487 0 0 0 -0.54893,0.12307 5.6359487,5.6359487 0 0 0 -0.53421,0.17752 5.6359487,5.6359487 0 0 0 -0.51522,0.23035 5.6359487,5.6359487 0 0 0 -0.255343,0.1468 l -0.42856,1.56018 -1.66876,6.07037 -15.8174,57.55566 -15.28161,55.60658 -1.75534,6.38887 -1.756838,-6.39181 a 9.3554832,9.3554842 0 0 1 0.0033,0 L 47.994153,224.1942 32.185619,166.6723 30.560891,160.76338 a 3.7572981,3.7572984 0 0 1 -0.03959,0.0618 3.7572981,3.7572984 0 0 1 -0.227468,0.29942 3.7572981,3.7572984 0 0 1 -0.255416,0.27436 3.7572981,3.7572984 0 0 1 -0.281801,0.24795 3.7572981,3.7572984 0 0 1 -0.305244,0.21868 3.7572981,3.7572984 0 0 1 -0.325833,0.18633 3.7572981,3.7572984 0 0 1 -0.343492,0.15421 3.7572981,3.7572984 0 0 1 -0.356642,0.11748 3.7572981,3.7572984 0 0 1 -0.366863,0.0822 3.7572981,3.7572984 0 0 1 -0.372799,0.0455 3.7572981,3.7572984 0 0 1 -0.265727,0.0115 3.7572984,3.7572984 0 0 0 0.264221,-0.0115 3.7572984,3.7572984 0 0 0 0.372798,-0.0455 3.7572984,3.7572984 0 0 0 0.366939,-0.0822 3.7572984,3.7572984 0 0 0 0.356643,-0.11748 3.7572984,3.7572984 0 0 0 0.343418,-0.15421 3.7572984,3.7572984 0 0 0 0.325833,-0.18633 3.7572984,3.7572984 0 0 0 0.305317,-0.21868 3.7572984,3.7572984 0 0 0 0.2818,-0.24795 3.7572984,3.7572984 0 0 0 0.255359,-0.27436 3.7572984,3.7572984 0 0 0 0.227469,-0.29942 3.7572984,3.7572984 0 0 0 0.03817,-0.0618 l -0.488749,-1.77885 a 5.6359487,5.6359487 0 0 0 -0.07483,-0.0455 5.6359487,5.6359487 0 0 0 -0.506333,-0.24511 5.6359487,5.6359487 0 0 0 -0.529857,-0.19229 5.6359487,5.6359487 0 0 0 -0.545934,-0.13939 5.6359487,5.6359487 0 0 0 -0.556305,-0.0854 5.6359487,5.6359487 0 0 0 -0.563593,-0.0283 5.6359487,5.6359487 0 0 0 -0.397749,0.0132 5.6359487,5.6359487 0 0 0 -0.559163,0.0675 5.6359487,5.6359487 0 0 0 -0.550368,0.12307 5.6359487,5.6359487 0 0 0 -0.534288,0.17753 5.6359487,5.6359487 0 0 0 -0.513697,0.23034 5.6359487,5.6359487 0 0 0 -0.114442,0.0661 l -0.453506,1.65116 a 3.7572984,3.7572984 0 0 0 0,0.001 l -1.70401,6.20101 -15.779232,57.41332 -0.810148,2.90163 h -28.935959 -6.678073 a 5.6359493,5.6359487 0 0 0 -0.164331,0.11747 5.6359493,5.6359487 0 0 0 -0.422694,0.37134 5.6359493,5.6359487 0 0 0 -0.384527,0.41242 5.6359493,5.6359487 0 0 0 -0.34056,0.44911 5.6359493,5.6359487 0 0 0 -0.294948,0.47996 5.6359493,5.6359487 0 0 0 -0.245137,0.50781 5.6359493,5.6359487 0 0 0 -0.193725,0.52837 5.6359493,5.6359487 0 0 0 -0.139502,0.54598 5.6359493,5.6359487 0 0 0 -0.08365,0.55771 5.6359493,5.6359487 0 0 0 -0.02783,0.56213 5.6359493,5.6359487 0 0 0 0.01466,0.39921 5.6359493,5.6359487 0 0 0 0.06755,0.55918 5.6359493,5.6359487 0 0 0 0.12324,0.54894 5.6359493,5.6359487 0 0 0 0.177653,0.53423 5.6359493,5.6359487 0 0 0 0.230392,0.51516 5.6359493,5.6359487 0 0 0 0.280382,0.48877 5.6359493,5.6359487 0 0 0 0.327262,0.4579 5.6359493,5.6359487 0 0 0 0.371293,0.42273 5.6359493,5.6359487 0 0 0 0.412476,0.3845 5.6359493,5.6359487 0 0 0 0.230395,0.17468 h 6.805675 26.351067 l -13.11681,46.97506 c -0.0061,3.8e-4 -0.01186,-4.1e-4 -0.01761,0 l -0.658955,2.35859 a 61.995441,61.995441 0 0 1 -60.844623,-61.93795 61.995441,61.995441 0 0 1 50.874738,-60.96217 61.995441,61.995441 0 0 1 6.50922,-0.84979 7.5145978,7.5145974 0 0 0 0.54015,-0.38601 7.5145978,7.5145974 0 0 0 0.563593,-0.49463 7.5145978,7.5145974 0 0 0 0.512197,-0.55036 7.5145978,7.5145974 0 0 0 0.455008,-0.59736 7.5145978,7.5145974 0 0 0 0.391888,-0.64138 7.5145978,7.5145974 0 0 0 0.32726,-0.67513 7.5145978,7.5145974 0 0 0 0.256837,-0.70598 7.5145978,7.5145974 0 0 0 0.186429,-0.72796 7.5145978,7.5145974 0 0 0 0.112943,-0.74268 7.5145978,7.5145974 0 0 0 0.03676,-0.74995 7.5145978,7.5145974 0 0 0 -0.01903,-0.53132 7.5145978,7.5145974 0 0 0 -0.08958,-0.74706 7.5145978,7.5145974 0 0 0 -0.164332,-0.73237 7.5145978,7.5145974 0 0 0 -0.237752,-0.71333 7.5145978,7.5145974 0 0 0 -0.306745,-0.68542 7.5145978,7.5145974 0 0 0 -0.374301,-0.65164 7.5145978,7.5145974 0 0 0 -0.435848,-0.61055 7.5145978,7.5145974 0 0 0 -0.496114,-0.56361 7.5145978,7.5145974 0 0 0 -0.55037,-0.51221 7.5145978,7.5145974 0 0 0 -0.597334,-0.455 7.5145978,7.5145974 0 0 0 -0.639944,-0.39187 7.5145978,7.5145974 0 0 0 -0.394816,-0.19084 z m 114.850038,12.53412 a 3.7572984,3.7572984 0 0 0 0.27594,0.25674 3.7572984,3.7572984 0 0 0 0.29797,0.2275 3.7572984,3.7572984 0 0 0 0.32138,0.19509 3.7572984,3.7572984 0 0 0 0.33764,0.1646 3.7572984,3.7572984 0 0 0 0.35221,0.12769 3.7572984,3.7572984 0 0 0 0.36401,0.0954 3.7572984,3.7572984 0 0 0 0.3713,0.0544 3.7572984,3.7572984 0 0 0 0.35664,0.0199 3.7572981,3.7572984 0 0 1 -0.35664,-0.017 3.7572981,3.7572984 0 0 1 -0.3713,-0.0557 3.7572981,3.7572984 0 0 1 -0.36401,-0.0939 3.7572981,3.7572984 0 0 1 -0.35221,-0.12769 3.7572981,3.7572984 0 0 1 -0.33764,-0.1646 3.7572981,3.7572984 0 0 1 -0.32138,-0.19512 3.7572981,3.7572984 0 0 1 -0.29797,-0.2275 3.7572981,3.7572984 0 0 1 -0.27594,-0.25673 3.7572981,3.7572984 0 0 1 0,-0.001 z m 5.31314,0.0776 a 3.7572981,3.7572984 0 0 1 0,0.001 3.7572981,3.7572984 0 0 1 -0.28183,0.24797 3.7572981,3.7572984 0 0 1 -0.3053,0.2187 3.7572981,3.7572984 0 0 1 -0.32583,0.18629 3.7572981,3.7572984 0 0 1 -0.34199,0.15439 3.7572981,3.7572984 0 0 1 -0.35666,0.11747 3.7572981,3.7572984 0 0 1 -0.36695,0.082 3.7572981,3.7572984 0 0 1 -0.37279,0.0455 3.7572981,3.7572984 0 0 1 -0.26564,0.0115 3.7572984,3.7572984 0 0 0 0.26564,-0.0115 3.7572984,3.7572984 0 0 0 0.37279,-0.0455 3.7572984,3.7572984 0 0 0 0.36695,-0.082 3.7572984,3.7572984 0 0 0 0.35666,-0.11747 3.7572984,3.7572984 0 0 0 0.34199,-0.15439 3.7572984,3.7572984 0 0 0 0.32583,-0.18629 3.7572984,3.7572984 0 0 0 0.3053,-0.2187 3.7572984,3.7572984 0 0 0 0.28183,-0.24797 z m -79.031046,1.04062 a 3.7572984,3.7572984 0 0 0 0.361075,0.0923 3.7572984,3.7572984 0 0 0 0.371297,0.0557 3.7572984,3.7572984 0 0 0 0.355213,0.0199 3.7572981,3.7572984 0 0 1 -0.353707,-0.017 3.7572981,3.7572984 0 0 1 -0.371298,-0.0557 3.7572981,3.7572984 0 0 1 -0.36258,-0.0939 z"
         style="opacity:1;fill:#ffffff;fill-opacity:1;stroke:#ffffff;stroke-width:0;stroke-linecap:butt;stroke-linejoin:miter;stroke-miterlimit:4;stroke-dasharray:none;stroke-dashoffset:20;stroke-opacity:1;paint-order:markers fill stroke" />
    </g>
  </g>
</svg>
