<?xml version="1.0" encoding="UTF-8" standalone="no"?>
<svg
   xmlns:dc="http://purl.org/dc/elements/1.1/"
   xmlns:cc="http://creativecommons.org/ns#"
   xmlns:rdf="http://www.w3.org/1999/02/22-rdf-syntax-ns#"
   xmlns:svg="http://www.w3.org/2000/svg"
   xmlns="http://www.w3.org/2000/svg"
   xmlns:sodipodi="http://sodipodi.sourceforge.net/DTD/sodipodi-0.dtd"
   xmlns:inkscape="http://www.inkscape.org/namespaces/inkscape"
   height="512pt"
   viewBox="0 -12 512 512"
   width="512pt"
   version="1.1"
   id="svg4554"
   sodipodi:docname="earth.svg"
   inkscape:version="0.92.4 (5da689c313, 2019-01-14)">
  <metadata
     id="metadata4560">
    <rdf:RDF>
      <cc:Work
         rdf:about="">
        <dc:format>image/svg+xml</dc:format>
        <dc:type
           rdf:resource="http://purl.org/dc/dcmitype/StillImage" />
        <dc:title></dc:title>
      </cc:Work>
    </rdf:RDF>
  </metadata>
  <defs
     id="defs4558" />
  <sodipodi:namedview
     pagecolor="#ffffff"
     bordercolor="#666666"
     borderopacity="1"
     objecttolerance="10"
     gridtolerance="10"
     guidetolerance="10"
     inkscape:pageopacity="0"
     inkscape:pageshadow="2"
     inkscape:window-width="2560"
     inkscape:window-height="1017"
     id="namedview4556"
     showgrid="false"
     inkscape:pagecheckerboard="true"
     inkscape:zoom="1.2421875"
     inkscape:cx="341.33333"
     inkscape:cy="341.33333"
     inkscape:window-x="-8"
     inkscape:window-y="-8"
     inkscape:window-maximized="1"
     inkscape:current-layer="svg4554" />
  <path
     d="m232.328125 248.46875c-23.933594 0-45.003906 14.40625-53.675781 36.699219-1.523438 3.914062.417968 8.324219 4.328125 9.84375 3.917969 1.523437 8.324219-.417969 9.847656-4.332031 6.378906-16.402344 21.882813-27.003907 39.5-27.003907 17.605469 0 33.113281 10.601563 39.507813 27.011719 1.167968 3.003906 4.042968 4.84375 7.085937 4.84375.917969 0 1.851563-.167969 2.757813-.519531 3.914062-1.527344 5.851562-5.933594 4.324218-9.847657-8.683594-22.292968-29.753906-36.695312-53.675781-36.695312zm0 0"
     id="path4540"
     style="fill:#ffffff;fill-opacity:1;stroke:none" />
  <path
     d="m197.152344 186.5c-.386719-1.003906-.976563-1.890625-1.707032-2.625-.003906-.003906-.003906-.003906-.007812-.007812l-23.230469-23.234376c-2.972656-2.96875-7.785156-2.96875-10.753906 0-2.972656 2.972657-2.972656 7.785157 0 10.753907l8.113281 8.113281-45.019531-4.609375c-4.1875-.429687-7.910156 2.613281-8.339844 6.789063-.429687 4.179687 2.613281 7.914062 6.789063 8.339843l51.453125 5.269531-27.417969 30.648438c-2.800781 3.132812-2.535156 7.9375.597656 10.738281 1.449219 1.296875 3.261719 1.9375 5.066406 1.9375 2.085938 0 4.167969-.855469 5.667969-2.535156l37.367188-41.765625c1.90625-2.128906 2.453125-5.148438 1.421875-7.8125zm0 0"
     id="path4542"
     style="fill:#ffffff;fill-opacity:1;stroke:none" />
  <path
     d="m339.699219 174.894531-45.023438 4.609375 8.113281-8.113281c2.972657-2.972656 2.972657-7.785156 0-10.753906-2.96875-2.96875-7.785156-2.96875-10.753906 0l-23.230468 23.234375c-.003907 0-.003907.003906-.007813.003906-.730469.734375-1.316406 1.621094-1.707031 2.625-1.03125 2.667969-.480469 5.683594 1.425781 7.816406l37.363281 41.765625c1.5 1.679688 3.578125 2.535157 5.667969 2.535157 1.804687 0 3.617187-.640626 5.070313-1.9375 3.128906-2.800782 3.394531-7.605469.597656-10.738282l-27.421875-30.648437 51.453125-5.269531c4.179687-.425782 7.21875-4.160157 6.792968-8.335938-.429687-4.179688-4.152343-7.226562-8.339843-6.792969zm0 0"
     id="path4544"
     style="fill:#ffffff;fill-opacity:1;stroke:none" />
  <path
     d="m413.777344 370.5625c.460937.082031.921875.125 1.378906.125 2.425781 0 4.738281-1.160156 6.183594-3.175781 28.355468-39.578125 43.34375-86.324219 43.34375-135.179688 0-62.058593-24.167969-120.402343-68.054688-164.285156-43.886718-43.882813-102.234375-68.046875-164.296875-68.046875-40.535156 0-80.4375 10.597656-115.398437 30.644531-33.90625 19.441407-62.601563 47.351563-82.988282 80.722657-2.191406 3.582031-1.0625 8.261718 2.523438 10.453124 3.582031 2.1875 8.261719 1.058594 10.453125-2.527343 19.058594-31.191407 45.882813-57.285157 77.574219-75.457031 32.664062-18.730469 69.953125-28.628907 107.835937-28.628907 10.234375 0 20.355469.71875 30.320313 2.101563 7.199218 15.332031 13.652344 42.117187 3.640625 58.855468-6.300781 10.535157-18.703125 15.878907-36.867188 15.878907-27.449219 0-49.3125-5.925781-66.878906-10.683594-23.875-6.46875-42.734375-11.578125-58.027344 3.714844-23.679687 23.679687-25.726562 61.148437-27.710937 97.386719-1.726563 31.53125-3.355469 61.3125-19.730469 74.3125-8.761719 6.957031-21.777344 9.167968-39.652344 6.746093-1.464843-10.242187-2.21875-20.65625-2.21875-31.1875 0-30.242187 6.101563-59.519531 18.128907-87.015625 1.683593-3.847656-.070313-8.332031-3.917969-10.015625-3.84375-1.679687-8.332031.074219-10.011719 3.921875-12.878906 29.429688-19.40625 60.757813-19.40625 93.109375 0 62.066407 24.164062 120.414063 68.046875 164.292969 43.878906 43.882812 102.222656 68.050781 164.285156 68.050781 38.796875 0 77.195313-9.753906 111.050781-28.203125 2.101563-1.144531 3.542969-3.21875 3.886719-5.589844.339844-2.375-.453125-4.769531-2.148437-6.464843l-81.597656-81.605469 78.53125 14.507812c4.132812.757813 8.09375-1.96875 8.855468-6.097656.765625-4.128906-1.964844-8.097656-6.09375-8.859375l-31.296875-5.78125c4.875-17.964843 22.816407-21.371093 49.0625-24.339843 19.183594-2.167969 37.308594-4.21875 43.871094-18.660157 7.503906-16.507812-8.113281-33.296875-23.21875-49.53125-17.660156-18.984375-24.53125-28.460937-18.554687-34.441406 22.144531-22.140625 48.390624-25.320313 82.371093-9.894531 1.605469 10.703125 2.425781 21.597656 2.425781 32.617187 0 44.046875-13.035156 86.257813-37.746093 122.386719l-37.007813-6.839844c-4.125-.765625-8.09375 1.96875-8.855468 6.097656-.765626 4.128907 1.964843 8.09375 6.09375 8.859376zm-380.65625-51.597656c45.3125 19.671875 82.425781 53.941406 105.574218 97.898437 2.527344 4.789063 4.878907 9.703125 7.050782 14.707031-24.667969-10.726562-47.351563-26.101562-66.945313-45.695312-19.582031-19.585938-34.953125-42.257812-45.679687-66.910156zm215.347656 129.878906c-7.957031-14.285156.890625-25.117188 22.730469-46.101562 5.113281-4.914063 10.351562-9.953126 15.378906-15.363282l40.417969 40.421875c-24.507813 11.867188-51.246094 19.011719-78.527344 21.042969zm150.089844-273.191406c-16.414063 2.195312-31.429688 10-44.628906 23.203125-5.542969 5.542969-10.460938 15.230469-2.421876 29.921875 4.65625 8.5 12.757813 17.210937 20.59375 25.632812 10.613282 11.402344 23.816407 25.597656 20.507813 32.875-2.996094 6.597656-17.605469 8.25-31.738281 9.847656-23.339844 2.640626-54.976563 6.234376-62.335938 36.683594l-56.304687-10.402344c-3.273438-.601562-6.5625.992188-8.113281 3.941407-1.546876 2.945312-1 6.558593 1.355468 8.914062l40.34375 40.351563c-4.867187 5.269531-10.074218 10.273437-15.152344 15.152344-10.609374 10.195312-20.632812 19.824218-26.074218 30.492187-4.640625 9.085937-5.429688 18.195313-2.402344 27.199219-23.171875-.015625-45.78125-3.640625-67.199219-10.597656-3.613281-10-7.921875-19.773438-12.84375-29.097657-27.007812-51.289062-71.785156-90.253906-126.332031-110.074219-2.1875-6.730468-4.042969-13.582031-5.5625-20.527343 3.523438.339843 6.898438.511719 10.132812.511719 14.964844 0 26.894532-3.644532 36.148438-10.992188 21.734375-17.253906 23.542969-50.351562 25.460938-85.394531 1.824218-33.378907 3.714843-67.898438 23.277343-87.460938 8.683594-8.683593 20.179688-6.054687 43.296875.207031 18.4375 4.996094 41.382813 11.214844 70.855469 11.214844 16.421875 0 38.417969-4.039062 49.921875-23.28125 11.695312-19.550781 7.417969-45.449218 1.011719-63.464844 39.660156 8.910157 76.074219 28.851563 105.515625 58.292969 28.84375 28.839844 48.554687 64.367188 57.726562 103.078125-16.160156-5.964844-31.265625-8.066406-45.039062-6.226562zm0 0"
     id="path4546"
     style="fill:#ffffff;fill-opacity:1;stroke:none" />
  <path
     d="m504.394531 392.394531h-69.101562c-4.203125 0-7.605469 3.402344-7.605469 7.601563 0 4.203125 3.402344 7.605468 7.605469 7.605468h69.101562c4.203125 0 7.605469-3.402343 7.605469-7.605468 0-4.199219-3.402344-7.601563-7.605469-7.601563zm0 0"
     id="path4548"
     style="fill:#ffffff;fill-opacity:1;stroke:none" />
  <path
     d="m414.957031 426.761719c-2.96875-2.96875-7.785156-2.96875-10.753906 0s-2.96875 7.785156 0 10.753906l48.210937 48.210937c1.484376 1.484376 3.429688 2.226563 5.378907 2.226563 1.945312 0 3.890625-.742187 5.375-2.226563 2.972656-2.96875 2.972656-7.785156 0-10.753906zm0 0"
     id="path4550"
     style="fill:#ffffff;fill-opacity:1;stroke:none" />
  <path
     d="m375.832031 442.214844c-4.199219 0-7.605469 3.402344-7.605469 7.601562v30.535156c0 4.199219 3.40625 7.605469 7.605469 7.605469s7.605469-3.40625 7.605469-7.605469v-30.535156c0-4.199218-3.40625-7.601562-7.605469-7.601562zm0 0"
     id="path4552"
     style="fill:#ffffff;fill-opacity:1;stroke:none" />
</svg>
